<svg width="1920" height="1024" viewBox="0 0 1920 1024" fill="none" xmlns="http://www.w3.org/2000/svg">
<rect width="1920" height="1024" fill="#EBEBEB"/>
<path fill-rule="evenodd" clip-rule="evenodd" d="M0 249L45.3333 313.583C92 378.167 182.667 507.333 274.667 546.801C365.333 584.475 457.333 532.449 548 571.917C640 611.384 732 740.551 822.667 753.109C914.667 765.667 1005.33 661.616 1097.33 571.917C1188 482.218 1280 403.282 1372 455.308C1462.67 507.333 1554.67 688.525 1645.33 790.782C1737.33 894.833 1828 919.949 1874.67 934.301L1920 946.859V1024H1874.67C1828 1024 1737.33 1024 1645.33 1024C1554.67 1024 1462.67 1024 1372 1024C1280 1024 1188 1024 1097.33 1024C1005.33 1024 914.667 1024 822.667 1024C732 1024 640 1024 548 1024C457.333 1024 365.333 1024 274.667 1024C182.667 1024 92 1024 45.3333 1024H0V249Z" fill="#23697D" fill-opacity="0.8"/>
<path fill-rule="evenodd" clip-rule="evenodd" d="M0 635L80 693C160 750 320 866 480 866C640 866 800 750 960 743C1120 736 1280 837 1440 887C1600 938 1804 774.5 1840 743C1876 711.5 1920 705.5 1920 705.5V1024H1840C1760 1024 1600 1024 1440 1024C1280 1024 1120 1024 960 1024C800 1024 640 1024 480 1024C320 1024 160 1024 80 1024H0V635Z" fill="#23697D" fill-opacity="0.7"/>
</svg>
